# xmcd
#
# Track frame offsets:
#	150
#	11227
#	25800
#	39427
#	53252
#	66220
#	76810
#	89792
#	101454
#	111232
#	122454
#	137070
#	149357
#	159232
#	170762
#	184602
#	195105
#	204997
#	217750
#	229802
#	244325
#	255815
#	269725
#	281915
#	301177
#
# Disc length: 4149
#
# Revision: 2
# Processed by: cddbd v1.5.1PL0 Copyright (c) Steve Scherf et al.
# Submitted via: FreeRIP 2.60 
# Normalized: r0:TDELIM( - ),TSWAP
#
DISCID=52103319
DTITLE=The Best Ever Country Revival - Vol.1
DYEAR=2000
DGENRE=Country
TTITLE0=Roger Miller - King of the Road
TTITLE1=Glen Campbell - Rhinestone Cowboy (Live)
TTITLE2=Jimmy Dean - Big Bad John
TTITLE3=Lynn Anderson - Rose Garden
TTITLE4=Faron Young - It's Four In The Morning
TTITLE5=Patsy Cline - Lovesick Blues
TTITLE6=Charlie Rich - The Most Beautiful Girl
TTITLE7=Billie Jo Spears - Try A Little Kindness
TTITLE8=Ned Miller - From A Jack To A King
TTITLE9=Don Gibson - Oh Lonesome Me
TTITLE10=Jeannie C Riley - Harper Valley PTA
TTITLE11=Jack Blanchard and Misty Morgan - Tennessee Birdwalk
TTITLE12=Hank Locklin - Please Help Me I'M Falling
TTITLE13=Sammi Smith - Help Me Make It Through The Night
TTITLE14=Johnny Carver - Tie A Yellow Ribbon 'Round The Ole Oak Tree
TTITLE15=Johnny Preston - Cradle Of Love
TTITLE16=Ray Price - Make The World Go Away
TTITLE17=Slim Whitman - Tennesse Waltz
TTITLE18=Jack Greene - There Goes My Everything
TTITLE19=Willi Nelson - Will You Remember
TTITLE20=Johnny Cash - Thanks A Lot
TTITLE21=George Jones - A Good Year For The Roses
TTITLE22=Merle Haggard - Okie From Muskogee
TTITLE23=Bobby Bare - Me And Bobby McGee
TTITLE24=Porter Wagoner - Green Green Grass Of Home
EXTD=
EXTT0=
EXTT1=
EXTT2=
EXTT3=
EXTT4=
EXTT5=
EXTT6=
EXTT7=
EXTT8=
EXTT9=
EXTT10=
EXTT11=
EXTT12=
EXTT13=
EXTT14=
EXTT15=
EXTT16=
EXTT17=
EXTT18=
EXTT19=
EXTT20=
EXTT21=
EXTT22=
EXTT23=
EXTT24=
PLAYORDER=
